<svg xmlns="http://www.w3.org/2000/svg" version="1.1" xmlns:xlink="http://www.w3.org/1999/xlink" xmlns:svgjs="http://svgjs.dev/svgjs" width="1000" height="1000"><g clip-path="url(#SvgjsClipPath1174)"><rect width="1000" height="1000" fill="#fff9f9"></rect><g transform="matrix(7.407407407407407,0,0,7.407407407407407,92.59259259259261,0)"><svg xmlns="http://www.w3.org/2000/svg" version="1.1" xmlns:xlink="http://www.w3.org/1999/xlink" xmlns:svgjs="http://svgjs.dev/svgjs" width="110" height="135"><svg xmlns="http://www.w3.org/2000/svg" version="1.1" viewBox="-5.0 -10.0 110.0 135.0">
 <path d="m61.059 18h-0.14062 0.003906c-4.0859-0.015625-8.0078 1.5781-10.922 4.4414-2.9141-2.8633-6.8359-4.457-10.922-4.4414h-0.14062 0.003906c-4.3359 0.13672-8.4297 2.0273-11.344 5.2422-2.918 3.2109-4.4023 7.4688-4.1172 11.797 0.37891 7.0586 4.2617 10.559 4.2617 17.16 0 11.039 2.9219 24.539 11.102 29.34h-0.003906c1.0234 0.5625 2.2695 0.54688 3.2773-0.042968 1.0078-0.58984 1.6328-1.668 1.6445-2.8359 0-10.68 3.8984-20 6.2383-20s6.2383 9.3789 6.2383 20c0.011719 1.168 0.63672 2.2461 1.6445 2.8359 1.0078 0.58984 2.2539 0.60547 3.2773 0.042968 8.1797-4.8008 11.102-18.301 11.102-29.34 0-6.6016 3.8789-10.102 4.2617-17.16h-0.003907c0.28516-4.3281-1.1992-8.5859-4.1172-11.797-2.9141-3.2148-7.0078-5.1055-11.344-5.2422zm11.461 16.84c-0.35938 6.7812-4.2617 10.238-4.2617 17.359 0 9.6211-2.5 20.801-8 25.16-0.25781-9.9375-3.8594-22.758-10.258-22.758s-10 12.82-10.219 22.762c-5.5391-4.3594-8-15.539-8-25.16 0-7.1211-3.8984-10.578-4.2617-17.359v-0.003906c-0.23047-3.2344 0.85938-6.4219 3.0156-8.8398 2.1602-2.4219 5.207-3.8633 8.4453-4h0.10156-0.003906c3.6758-0.011719 7.1367 1.7266 9.3203 4.6797 0.37891 0.50391 0.97266 0.80078 1.6016 0.80078s1.2227-0.29688 1.6016-0.80078c2.1836-2.9531 5.6445-4.6914 9.3203-4.6797h0.10156-0.003907c3.2461 0.12891 6.3008 1.5664 8.4688 3.9844 2.168 2.4219 3.2617 5.6172 3.0312 8.8555z"></path>
<text x="0.0" y="117.5" font-size="5.0" font-weight="bold" font-family="Arbeit Regular, Helvetica, Arial-Unicode, Arial, Sans-serif" fill="#000000" svgjs:data="{&quot;leading&quot;:&quot;1.3&quot;}">Created by MBR</text><text x="0.0" y="122.5" font-size="5.0" font-weight="bold" font-family="Arbeit Regular, Helvetica, Arial-Unicode, Arial, Sans-serif" fill="#000000" svgjs:data="{&quot;leading&quot;:&quot;1.3&quot;}">from Noun Project</text></svg></svg></g></g><defs><clipPath id="SvgjsClipPath1174"><rect width="1000" height="1000" x="0" y="0" rx="500" ry="500"></rect></clipPath></defs></svg>